<svg width="20" height="20" viewBox="0 0 20 20" fill="none" xmlns="http://www.w3.org/2000/svg">
<path fill-rule="evenodd" clip-rule="evenodd" d="M9.99984 1.04166C14.944 1.04166 18.9582 5.05582 18.9582 9.99999C18.9582 14.9442 14.944 18.9583 9.99984 18.9583C5.05567 18.9583 1.0415 14.9442 1.0415 9.99999C1.0415 5.05582 5.05567 1.04166 9.99984 1.04166ZM9.99984 2.29166C5.74567 2.29166 2.2915 5.74582 2.2915 9.99999C2.2915 14.2542 5.74567 17.7083 9.99984 17.7083C14.254 17.7083 17.7082 14.2542 17.7082 9.99999C17.7082 5.74582 14.254 2.29166 9.99984 2.29166Z" fill="#494A4C"/>
<path fill-rule="evenodd" clip-rule="evenodd" d="M5.99758 10.2333C5.75341 9.98998 5.75341 9.59331 5.99758 9.34998C6.24174 9.10581 6.63758 9.10581 6.88175 9.34998L9.07091 11.5391L13.0992 7.13498C13.3326 6.88081 13.7284 6.86248 13.9826 7.09581C14.2367 7.32831 14.2551 7.72414 14.0217 7.97831L9.55174 12.865C9.43674 12.9908 9.27508 13.0641 9.10508 13.0683C8.93424 13.0716 8.77008 13.0058 8.64924 12.885L5.99758 10.2333Z" fill="#494A4C"/>
</svg>
