<svg width="20" height="20" viewBox="0 0 20 20" fill="none" xmlns="http://www.w3.org/2000/svg">
<path d="M13.3333 18.75H3.33333C2.781 18.7493 2.25148 18.5296 1.86092 18.1391C1.47037 17.7485 1.25066 17.219 1.25 16.6667V3.33333C1.25066 2.781 1.47037 2.25148 1.86092 1.86092C2.25148 1.47037 2.781 1.25066 3.33333 1.25H9.775C10.0525 1.25019 10.3271 1.30554 10.583 1.41283C10.8388 1.52013 11.0708 1.67723 11.2654 1.875L14.8229 5.51625C15.2045 5.9058 15.4177 6.42969 15.4167 6.975V10.0792C15.4167 10.1897 15.3728 10.2957 15.2946 10.3738C15.2165 10.4519 15.1105 10.4958 15 10.4958C14.8895 10.4958 14.7835 10.4519 14.7054 10.3738C14.6272 10.2957 14.5833 10.1897 14.5833 10.0792V6.975C14.5835 6.6479 14.4555 6.33377 14.2267 6.1L10.6687 2.45833C10.5522 2.33959 10.4131 2.24526 10.2596 2.18088C10.1062 2.11649 9.94142 2.08333 9.775 2.08333H3.33333C3.00181 2.08333 2.68387 2.21503 2.44945 2.44945C2.21503 2.68387 2.08333 3.00181 2.08333 3.33333V16.6667C2.08333 16.9982 2.21503 17.3161 2.44945 17.5506C2.68387 17.785 3.00181 17.9167 3.33333 17.9167H13.3333C13.4905 17.9173 13.6463 17.8868 13.7917 17.8271C13.8939 17.785 14.0086 17.7853 14.1106 17.8279C14.2126 17.8704 14.2936 17.9517 14.3356 18.054C14.3777 18.1562 14.3774 18.2709 14.3348 18.3729C14.2923 18.4749 14.211 18.5559 14.1088 18.5979C13.8627 18.699 13.5993 18.7506 13.3333 18.75Z" fill="#494A4C"/>
<path d="M14.8292 6.66668H12.0833C11.531 6.66602 11.0015 6.44631 10.6109 6.05576C10.2204 5.6652 10.0007 5.13568 10 4.58335V1.79585C10 1.68534 10.0439 1.57936 10.122 1.50122C10.2002 1.42308 10.3062 1.37918 10.4167 1.37918C10.5272 1.37918 10.6332 1.42308 10.7113 1.50122C10.7894 1.57936 10.8333 1.68534 10.8333 1.79585V4.58335C10.8333 4.91487 10.965 5.23281 11.1994 5.46723C11.4339 5.70165 11.7518 5.83335 12.0833 5.83335H14.8292C14.9397 5.83335 15.0457 5.87725 15.1238 5.95539C15.2019 6.03353 15.2458 6.13951 15.2458 6.25001C15.2458 6.36052 15.2019 6.4665 15.1238 6.54464C15.0457 6.62278 14.9397 6.66668 14.8292 6.66668Z" fill="#494A4C"/>
<path d="M14.1668 18.6892C14.0025 18.6894 13.8418 18.6408 13.7052 18.5496L12.3668 17.6571C11.51 17.0874 10.8075 16.3146 10.3219 15.4075C9.83622 14.5004 9.58257 13.4873 9.5835 12.4583V11.745C9.58431 11.5575 9.64804 11.3758 9.76446 11.2288C9.88088 11.0819 10.0433 10.9783 10.2256 10.9346C11.463 10.5925 12.6403 10.0614 13.7156 9.36001C13.8501 9.27335 14.0068 9.22726 14.1668 9.22726C14.3269 9.22726 14.4835 9.27335 14.6181 9.36001C15.6934 10.0615 16.8706 10.5926 18.1081 10.9346C18.2904 10.9783 18.4528 11.0819 18.5692 11.2288C18.6856 11.3758 18.7493 11.5575 18.7502 11.745V12.4583C18.7514 13.4875 18.4978 14.501 18.0122 15.4084C17.5265 16.3158 16.8239 17.0889 15.9668 17.6588L14.6289 18.5508C14.492 18.6417 14.3312 18.6898 14.1668 18.6892ZM14.1668 10.06C13.0148 10.8115 11.7531 11.3797 10.4268 11.7442L10.4168 12.4583C10.4158 13.3503 10.6355 14.2286 11.0564 15.015C11.4773 15.8015 12.0862 16.4715 12.8289 16.9654L14.1668 17.8558L15.5047 16.9638C16.2472 16.47 16.856 15.8002 17.2769 15.0141C17.6977 14.228 17.9176 13.35 17.9168 12.4583V11.745C16.5873 11.3807 15.3222 10.8124 14.1668 10.0604V10.06Z" fill="#494A4C"/>
<path d="M13.7498 15C13.6393 15 13.5333 14.9561 13.4552 14.8779L12.6218 14.0446C12.5459 13.966 12.5039 13.8608 12.5049 13.7515C12.5058 13.6423 12.5497 13.5378 12.6269 13.4605C12.7042 13.3832 12.8087 13.3394 12.9179 13.3385C13.0272 13.3375 13.1324 13.3795 13.211 13.4554L13.7498 13.9942L15.1218 12.6221C15.2004 12.5462 15.3057 12.5042 15.4149 12.5051C15.5242 12.5061 15.6287 12.5499 15.7059 12.6272C15.7832 12.7044 15.827 12.8089 15.828 12.9182C15.8289 13.0274 15.7869 13.1327 15.711 13.2113L14.0443 14.8779C13.9662 14.9561 13.8603 15 13.7498 15Z" fill="#494A4C"/>
<path d="M7.5 5.41668H4.16667C4.05616 5.41668 3.95018 5.37278 3.87204 5.29464C3.7939 5.2165 3.75 5.11052 3.75 5.00001C3.75 4.8895 3.7939 4.78352 3.87204 4.70538C3.95018 4.62724 4.05616 4.58334 4.16667 4.58334H7.5C7.61051 4.58334 7.71649 4.62724 7.79463 4.70538C7.87277 4.78352 7.91667 4.8895 7.91667 5.00001C7.91667 5.11052 7.87277 5.2165 7.79463 5.29464C7.71649 5.37278 7.61051 5.41668 7.5 5.41668Z" fill="#494A4C"/>
<path d="M10 7.91668H4.16667C4.05616 7.91668 3.95018 7.87278 3.87204 7.79464C3.7939 7.7165 3.75 7.61052 3.75 7.50001C3.75 7.3895 3.7939 7.28352 3.87204 7.20538C3.95018 7.12724 4.05616 7.08334 4.16667 7.08334H10C10.1105 7.08334 10.2165 7.12724 10.2946 7.20538C10.3728 7.28352 10.4167 7.3895 10.4167 7.50001C10.4167 7.61052 10.3728 7.7165 10.2946 7.79464C10.2165 7.87278 10.1105 7.91668 10 7.91668Z" fill="#494A4C"/>
<path d="M10.8333 10.4167H4.16667C4.05616 10.4167 3.95018 10.3728 3.87204 10.2946C3.7939 10.2165 3.75 10.1105 3.75 10C3.75 9.8895 3.7939 9.78352 3.87204 9.70538C3.95018 9.62724 4.05616 9.58334 4.16667 9.58334H10.8333C10.9438 9.58334 11.0498 9.62724 11.128 9.70538C11.2061 9.78352 11.25 9.8895 11.25 10C11.25 10.1105 11.2061 10.2165 11.128 10.2946C11.0498 10.3728 10.9438 10.4167 10.8333 10.4167Z" fill="#494A4C"/>
<path d="M8.33333 12.9167H4.16667C4.05616 12.9167 3.95018 12.8728 3.87204 12.7946C3.7939 12.7165 3.75 12.6105 3.75 12.5C3.75 12.3895 3.7939 12.2835 3.87204 12.2054C3.95018 12.1272 4.05616 12.0833 4.16667 12.0833H8.33333C8.44384 12.0833 8.54982 12.1272 8.62796 12.2054C8.7061 12.2835 8.75 12.3895 8.75 12.5C8.75 12.6105 8.7061 12.7165 8.62796 12.7946C8.54982 12.8728 8.44384 12.9167 8.33333 12.9167Z" fill="#494A4C"/>
<path d="M8.33333 15.4167H4.16667C4.05616 15.4167 3.95018 15.3728 3.87204 15.2946C3.7939 15.2165 3.75 15.1105 3.75 15C3.75 14.8895 3.7939 14.7835 3.87204 14.7054C3.95018 14.6272 4.05616 14.5833 4.16667 14.5833H8.33333C8.44384 14.5833 8.54982 14.6272 8.62796 14.7054C8.7061 14.7835 8.75 14.8895 8.75 15C8.75 15.1105 8.7061 15.2165 8.62796 15.2946C8.54982 15.3728 8.44384 15.4167 8.33333 15.4167Z" fill="#494A4C"/>
</svg>
