<svg width="17" height="20" viewBox="0 0 17 20" fill="none" xmlns="http://www.w3.org/2000/svg">
<path d="M16.7839 5.14964C16.7736 4.60966 16.7638 4.09956 16.7638 3.60607C16.7638 3.21945 16.4505 2.90602 16.0638 2.90602C13.0699 2.90602 10.7904 2.04561 8.89039 0.19822C8.61858 -0.0661198 8.18604 -0.0660265 7.91433 0.19822C6.01448 2.04561 3.7354 2.90602 0.741697 2.90602C0.355082 2.90602 0.0416461 3.21945 0.0416461 3.60607C0.0416461 4.09965 0.0319387 4.60994 0.0215779 5.15001C-0.0743758 10.1751 -0.205798 17.0571 8.17307 19.9614C8.24737 19.9872 8.32484 20.0001 8.40231 20.0001C8.47978 20.0001 8.55735 19.9872 8.63156 19.9614C17.0111 17.057 16.8798 10.1748 16.7839 5.14964ZM8.40241 18.5571C1.21643 15.9467 1.32507 10.2282 1.42149 5.1767C1.42728 4.87354 1.43288 4.5797 1.4368 4.29165C4.24074 4.1733 6.48296 3.32362 8.40241 1.65153C10.322 3.32362 12.5646 4.17339 15.3688 4.29165C15.3727 4.57961 15.3783 4.87326 15.3841 5.17624C15.4804 10.2279 15.5889 15.9466 8.40241 18.5571Z" fill="#494A4C"/>
<path d="M10.813 7.56819L7.4342 10.9468L5.99237 9.505C5.71898 9.2317 5.27571 9.2317 5.00241 9.505C4.72901 9.77848 4.72901 10.2217 5.00241 10.4951L6.93922 12.4319C7.07587 12.5685 7.25508 12.6368 7.4342 12.6368C7.61332 12.6368 7.79253 12.5685 7.92918 12.4319L11.8029 8.55825C12.0764 8.28485 12.0764 7.84158 11.803 7.56828C11.5297 7.29489 11.0864 7.29479 10.813 7.56819Z" fill="#494A4C"/>
</svg>
