<svg width="17" height="20" viewBox="0 0 17 20" fill="none" xmlns="http://www.w3.org/2000/svg">
<path d="M5.8047 9.07737L2.80584 10.1336C2.5391 10.2279 2.30812 10.4025 2.14463 10.6334C1.98115 10.8644 1.89319 11.1402 1.89285 11.4231V12.4861H0.333447C0.282835 12.4858 0.232826 12.4971 0.187216 12.519C0.141606 12.5409 0.101593 12.573 0.0702137 12.6127C0.0390592 12.6527 0.0174613 12.6994 0.0070671 12.749C-0.00332711 12.7987 -0.00224306 12.8501 0.0102365 12.8992L1.66627 19.7433C1.68386 19.8179 1.7266 19.8841 1.78729 19.9308C1.84798 19.9775 1.92291 20.0019 1.99948 19.9999H14.6613C14.7379 20.0019 14.8128 19.9775 14.8735 19.9308C14.9342 19.8841 14.977 19.8179 14.9945 19.7433L16.6606 12.9059C16.6731 12.8567 16.6741 12.8054 16.6637 12.7557C16.6533 12.706 16.6318 12.6594 16.6006 12.6194C16.5692 12.5796 16.5292 12.5476 16.4836 12.5257C16.438 12.5037 16.388 12.4925 16.3374 12.4927H14.7946V11.4298C14.7946 11.1472 14.7067 10.8716 14.5431 10.6412C14.3795 10.4108 14.1484 10.2369 13.8816 10.1436L10.8528 9.07403L10.4563 8.93742C11.4047 8.45915 12.1642 7.67501 12.612 6.71174C13.0598 5.74848 13.1696 4.66237 12.9238 3.62895C12.678 2.59554 12.0909 1.67521 11.2574 1.0167C10.4239 0.358199 9.39265 0 8.33041 0C7.26816 0 6.23695 0.358199 5.40344 1.0167C4.56993 1.67521 3.98283 2.59554 3.73702 3.62895C3.49121 4.66237 3.60106 5.74848 4.04882 6.71174C4.49657 7.67501 5.25607 8.45915 6.20455 8.93742L5.81803 9.07403L5.8047 9.07737ZM2.53261 11.4298C2.53195 11.2837 2.57685 11.141 2.66105 11.0215C2.74525 10.9021 2.86458 10.8119 3.00243 10.7634L5.71807 9.81042L6.69769 12.4761H2.53261V11.4298ZM14.4148 19.3335H2.24605L0.759951 13.1591H15.9009L14.4148 19.3335ZM14.1282 11.4298V12.4927H9.95979L10.9594 9.82708L13.6617 10.7701C13.7976 10.8191 13.9152 10.9087 13.9986 11.0266C14.082 11.1446 14.1272 11.2853 14.1282 11.4298ZM4.27528 4.72902C4.27528 3.92699 4.51311 3.14297 4.95869 2.47611C5.40428 1.80925 6.0376 1.28949 6.77858 0.982572C7.51956 0.675649 8.33491 0.595344 9.12152 0.751812C9.90814 0.90828 10.6307 1.29449 11.1978 1.86161C11.7649 2.42873 12.1511 3.15129 12.3076 3.9379C12.4641 4.72452 12.3838 5.53987 12.0769 6.28085C11.7699 7.02183 11.2502 7.65515 10.5833 8.10073C9.91645 8.54632 9.13244 8.78414 8.33041 8.78414C7.25519 8.78326 6.22427 8.35574 5.46398 7.59545C4.70368 6.83516 4.27616 5.80423 4.27528 4.72902ZM8.33041 9.45056C8.71588 9.44781 9.09962 9.39858 9.47331 9.30395L10.313 9.59717L9.25006 12.4927H7.40742L6.34783 9.59384L7.18084 9.30061C7.55635 9.398 7.94249 9.44836 8.33041 9.45056Z" fill="#494A4C"/>
<path d="M8.33029 14.7019C7.22738 14.7019 6.33105 15.4883 6.33105 16.4579C6.33105 17.4275 7.22738 18.2172 8.33029 18.2172C9.43321 18.2172 10.3295 17.4275 10.3295 16.4579C10.3295 15.4883 9.43321 14.7019 8.33029 14.7019ZM8.33029 17.5508C7.59724 17.5508 6.99747 17.061 6.99747 16.4579C6.99747 15.8548 7.59724 15.3683 8.33029 15.3683C9.06335 15.3683 9.66312 15.8581 9.66312 16.4579C9.66312 17.0577 9.06335 17.5508 8.33029 17.5508Z" fill="#494A4C"/>
<path d="M8.92328 1.91674C10.0795 2.13 10.6993 3.1596 10.8625 3.46949C10.9048 3.54555 10.9752 3.60206 11.0585 3.62693C11.1419 3.65181 11.2317 3.64307 11.3088 3.6026C11.3858 3.56212 11.444 3.49312 11.4708 3.41034C11.4976 3.32755 11.491 3.23756 11.4523 3.1596C11.2557 2.78308 10.496 1.53022 9.04657 1.26033C8.63922 1.1866 8.22129 1.19453 7.81703 1.28365C7.77328 1.29306 7.7318 1.31099 7.69497 1.33643C7.65815 1.36187 7.62669 1.39431 7.6024 1.4319C7.57811 1.46949 7.56147 1.5115 7.55341 1.55553C7.54536 1.59956 7.54606 1.64474 7.55547 1.6885C7.56487 1.73225 7.58281 1.77373 7.60824 1.81056C7.63368 1.84738 7.66612 1.87884 7.70372 1.90313C7.74131 1.92742 7.78332 1.94406 7.82735 1.95212C7.87137 1.96017 7.91655 1.95947 7.96031 1.95006C8.27578 1.87422 8.60332 1.86289 8.92328 1.91674Z" fill="#494A4C"/>
</svg>
