<svg width="20" height="20" viewBox="0 0 20 20" fill="none" xmlns="http://www.w3.org/2000/svg">
<path d="M17.7363 13.5927C19.3791 9.64405 17.4308 4.81218 13.511 3.10305C13.4355 3.06882 13.3495 3.06599 13.2719 3.09518C13.1943 3.12437 13.1315 3.18319 13.0972 3.2587C13.063 3.33421 13.0602 3.42023 13.0894 3.49782C13.1185 3.57542 13.1774 3.63824 13.2529 3.67247C15.0159 4.47257 16.4052 5.91801 17.1349 7.71133C17.8646 9.50466 17.8791 11.5095 17.1755 13.3132C16.828 13.2262 16.4607 13.2707 16.1439 13.438C15.8272 13.6053 15.5833 13.8837 15.4592 14.2197C15.3351 14.5557 15.3395 14.9258 15.4715 15.2588C15.6035 15.5918 15.8538 15.8644 16.1744 16.0241C16.495 16.1839 16.8633 16.2197 17.2087 16.1246C17.554 16.0295 17.8521 15.8102 18.0457 15.5088C18.2393 15.2074 18.3148 14.8451 18.2577 14.4915C18.2006 14.1379 18.0149 13.8178 17.7363 13.5927ZM16.8311 15.5517C16.6129 15.549 16.4046 15.4603 16.2512 15.3051C16.0979 15.1498 16.012 14.9403 16.012 14.7221C16.012 14.5039 16.0979 14.2945 16.2513 14.1392C16.4046 13.9839 16.6129 13.8953 16.8311 13.8925C17.0495 13.8949 17.2582 13.9834 17.4118 14.1388C17.5654 14.2941 17.6515 14.5037 17.6515 14.7221C17.6515 14.9406 17.5653 15.1502 17.4117 15.3055C17.2581 15.4608 17.0495 15.5493 16.8311 15.5517Z" fill="#494A4C"/>
<path d="M2.28146 11.5625C2.78541 11.5186 2.51748 10.8913 2.56469 10.5624C2.56702 8.77647 3.20091 7.04886 4.35422 5.68519C5.50753 4.32152 7.10596 3.40966 8.86677 3.1109C8.9638 3.44707 9.17907 3.73684 9.47289 3.92681C9.76672 4.11678 10.1193 4.19414 10.4657 4.14465C10.8121 4.09515 11.1289 3.92213 11.3577 3.65748C11.5866 3.39282 11.7121 3.05436 11.7111 2.70447C11.6778 0.92406 9.12643 0.730666 8.82471 2.47832C6.78425 2.81237 4.94495 3.904 3.67429 5.53511C2.40363 7.16621 1.79518 9.21669 1.9705 11.2769C1.97721 11.3548 2.01286 11.4273 2.07043 11.4802C2.12799 11.533 2.20329 11.5624 2.28146 11.5625ZM10.2565 1.875C10.4747 1.87778 10.683 1.96641 10.8363 2.12169C10.9896 2.27698 11.0756 2.48641 11.0756 2.70463C11.0756 2.92285 10.9896 3.13228 10.8363 3.28756C10.683 3.44284 10.4746 3.53146 10.2564 3.53424C10.0382 3.53146 9.82991 3.44282 9.6766 3.28754C9.52328 3.13225 9.43732 2.92282 9.43732 2.7046C9.43733 2.48638 9.5233 2.27695 9.67662 2.12167C9.82994 1.9664 10.0383 1.87777 10.2565 1.875Z" fill="#494A4C"/>
<path d="M14.3791 16.817C12.8039 17.8881 10.8823 18.3249 8.99882 18.04C7.11536 17.7551 5.40891 16.7696 4.22088 15.2806C4.45522 15.0116 4.58199 14.6655 4.57686 14.3088C4.57174 13.9521 4.43509 13.6099 4.19312 13.3477C3.95115 13.0856 3.62091 12.922 3.26575 12.8884C2.91059 12.8548 2.55552 12.9535 2.26866 13.1656C1.98181 13.3776 1.78336 13.6882 1.7114 14.0376C1.63944 14.387 1.69903 14.7507 1.87874 15.0589C2.05845 15.3671 2.34562 15.598 2.68516 15.7075C3.0247 15.8169 3.3927 15.7972 3.71856 15.652C5.0025 17.2711 6.85154 18.3444 8.89426 18.6563C10.937 18.9682 13.0221 18.4956 14.7307 17.3334C14.7974 17.2861 14.8429 17.2144 14.8574 17.1339C14.8719 17.0534 14.8542 16.9704 14.8082 16.9028C14.7621 16.8351 14.6914 16.7883 14.6112 16.7722C14.5309 16.7562 14.4476 16.7723 14.3791 16.817ZM2.30667 14.321C2.30945 14.1028 2.39808 13.8945 2.55336 13.7412C2.70865 13.5878 2.91808 13.5019 3.1363 13.5019C3.35452 13.5019 3.56395 13.5879 3.71923 13.7412C3.87451 13.8945 3.96314 14.1028 3.96591 14.321C3.96347 14.5394 3.87499 14.7481 3.71967 14.9017C3.56435 15.0553 3.35472 15.1414 3.13628 15.1414C2.91784 15.1414 2.70821 15.0553 2.55289 14.9017C2.39758 14.7481 2.3091 14.5394 2.30667 14.321Z" fill="#494A4C"/>
<path d="M9.99895 5.972C8.01701 5.94451 6.91112 8.38231 8.21815 9.84811C7.58697 10.1417 7.03668 10.5844 6.61475 11.138C6.19281 11.6917 5.91189 12.3397 5.79622 13.0261C5.77682 13.1492 5.78417 13.275 5.81778 13.395C5.85139 13.515 5.91046 13.6263 5.99098 13.7214C6.0715 13.8164 6.17156 13.8931 6.28436 13.946C6.39716 13.9989 6.52003 14.0269 6.64462 14.028H13.3527C13.4775 14.0272 13.6006 13.9994 13.7137 13.9466C13.8268 13.8938 13.9272 13.8173 14.008 13.7222C14.0888 13.6271 14.1482 13.5157 14.182 13.3955C14.2159 13.2754 14.2234 13.1494 14.2041 13.0261C14.0872 12.3398 13.8055 11.6921 13.3832 11.1386C12.9609 10.5851 12.4106 10.1423 11.7796 9.84829C13.0866 8.3843 11.9809 5.94307 9.99895 5.972ZM9.99895 6.597C12.2769 6.66942 12.2766 9.97241 9.99891 10.0446C7.72072 9.97207 7.72158 6.66907 9.99895 6.597ZM13.5871 13.1271C13.5936 13.1613 13.5925 13.1964 13.5837 13.23C13.5748 13.2636 13.5586 13.2948 13.5361 13.3213C13.5136 13.3478 13.4854 13.3689 13.4537 13.383C13.4219 13.3972 13.3874 13.404 13.3527 13.403H6.6446C6.61062 13.4032 6.57702 13.3958 6.54622 13.3814C6.51541 13.3671 6.48815 13.3461 6.46638 13.32C6.44381 13.2937 6.42733 13.2628 6.41812 13.2294C6.40892 13.196 6.40721 13.161 6.41312 13.1269C6.52057 12.4927 6.79349 11.8981 7.2043 11.4032C7.61512 10.9083 8.14927 10.5306 8.75281 10.3082C9.12552 10.5442 9.55759 10.6695 9.99874 10.6696C10.4399 10.6696 10.872 10.5444 11.2447 10.3084C11.8483 10.5312 12.3825 10.909 12.7937 11.4038C13.2049 11.8987 13.4785 12.493 13.5871 13.1271Z" fill="#494A4C"/>
</svg>
