<svg width="18" height="20" viewBox="0 0 18 20" fill="none" xmlns="http://www.w3.org/2000/svg">
<path d="M9.70249 2.70668C6.41178 2.31684 3.42816 4.66847 3.03833 7.95918C2.7907 10.0496 3.65662 12.1168 5.32016 13.4067C5.74283 13.7236 5.99412 14.2191 6.00016 14.7473V17C6.00145 17.829 6.34437 18.6207 6.94816 19.1887C7.50191 19.712 8.23562 20.0024 8.99749 20C9.06416 20 9.13083 19.998 9.19749 19.9937C10.7972 19.8621 12.0219 18.5143 12.0002 16.9093V14.7463C12.0044 14.2215 12.2528 13.7286 12.6722 13.413C15.294 11.3865 15.7766 7.6183 13.7502 4.99647C12.7636 3.72013 11.3047 2.89476 9.70249 2.70668ZM9.15516 19.3283H9.15683C8.51124 19.3741 7.87608 19.147 7.40583 18.7023C7.39349 18.691 7.38316 18.6783 7.37249 18.6667H10.6088C10.2206 19.0563 9.70395 19.2915 9.15516 19.3283ZM11.0835 18H6.89249C6.84108 17.8924 6.79816 17.781 6.76416 17.6667H11.2148C11.1792 17.7808 11.1353 17.8922 11.0835 18ZM11.3292 17H6.66683V16.6667H11.3335C11.3335 16.6667 11.3305 16.9697 11.3292 17ZM11.3335 16H6.66683V15.6667H11.3335V16ZM14.2965 9.29163C14.1285 10.7138 13.3956 12.0086 12.2628 12.8847L12.2658 12.8843C11.6818 13.3257 11.337 14.0143 11.3335 14.7463V15H6.66683V14.7473C6.66137 14.0132 6.31483 13.3234 5.72916 12.8807C3.40183 11.0752 2.97874 7.72497 4.7842 5.39763C5.7932 4.09697 7.34633 3.33509 8.99249 3.33334C9.20412 3.33351 9.41558 3.34551 9.62583 3.36934C12.551 3.71497 14.6422 6.36647 14.2965 9.29163Z" fill="#494A4C"/>
<path d="M10.7852 4.35199C10.6146 4.28287 10.4202 4.36516 10.3511 4.53578C10.2829 4.70433 10.3622 4.89645 10.5295 4.96766C11.8587 5.51503 12.7906 6.73503 12.9692 8.16132C12.9911 8.34412 13.1571 8.47458 13.3399 8.45266C13.5227 8.43074 13.6531 8.26478 13.6312 8.08199C13.4236 6.41678 12.3365 4.99195 10.7852 4.35199Z" fill="#494A4C"/>
<path d="M9.5515 4.03167V4.03333C9.36838 4.01179 9.18421 4.00067 8.99984 4C8.81575 4 8.6665 4.14925 8.6665 4.33333C8.6665 4.51742 8.81575 4.66667 8.99984 4.66667C9.159 4.66671 9.31805 4.67583 9.47617 4.694C9.4888 4.69533 9.50146 4.696 9.51417 4.696C9.69825 4.69492 9.84663 4.54479 9.8455 4.36067C9.8445 4.19254 9.71846 4.0515 9.5515 4.03167Z" fill="#494A4C"/>
<path d="M8.99984 2C9.18392 2 9.33317 1.85075 9.33317 1.66667V0.333333C9.33317 0.14925 9.18392 0 8.99984 0C8.81575 0 8.6665 0.14925 8.6665 0.333333V1.66667C8.6665 1.85075 8.81575 2 8.99984 2Z" fill="#494A4C"/>
<path d="M5.04475 2.81567C5.13575 2.97571 5.33925 3.03167 5.49929 2.94067C5.65933 2.84967 5.71529 2.64617 5.62429 2.48613C5.62358 2.48483 5.62283 2.48358 5.62208 2.48229L4.95541 1.32763C4.86233 1.16879 4.65808 1.11554 4.49929 1.20863C4.34195 1.30088 4.28795 1.50242 4.37808 1.66096L5.04475 2.81567Z" fill="#494A4C"/>
<path d="M1.3279 4.95534L2.48257 5.62201C2.64261 5.71301 2.84611 5.65705 2.93711 5.49701C3.02728 5.33847 2.97323 5.13693 2.8159 5.04468L1.66123 4.37801C1.50119 4.28701 1.29769 4.34297 1.20669 4.50301C1.11657 4.66155 1.17057 4.86309 1.3279 4.95534Z" fill="#494A4C"/>
<path d="M2 8.99999C2 8.81591 1.85075 8.66666 1.66667 8.66666H0.333333C0.14925 8.66666 0 8.81591 0 8.99999C0 9.18407 0.14925 9.33332 0.333333 9.33332H1.66667C1.85075 9.33332 2 9.18407 2 8.99999Z" fill="#494A4C"/>
<path d="M2.48639 12.3757C2.4851 12.3765 2.48381 12.3772 2.48252 12.378L1.32785 13.0447C1.16781 13.1356 1.11181 13.3391 1.20277 13.4992C1.29373 13.6592 1.49723 13.7152 1.65727 13.6242C1.65856 13.6235 1.65985 13.6227 1.66114 13.622L2.81581 12.9553C2.97585 12.8644 3.03185 12.6609 2.9409 12.5008C2.84994 12.3408 2.64648 12.2848 2.48639 12.3757Z" fill="#494A4C"/>
<path d="M16.6723 13.0447L15.5176 12.378C15.3588 12.2849 15.1546 12.3381 15.0615 12.4969C14.9683 12.6557 15.0216 12.86 15.1804 12.9531C15.1817 12.9538 15.183 12.9546 15.1843 12.9553L16.3389 13.622C16.499 13.713 16.7025 13.657 16.7934 13.4969C16.8836 13.3384 16.8296 13.1369 16.6723 13.0447Z" fill="#494A4C"/>
<path d="M17.6667 8.66666H16.3333C16.1493 8.66666 16 8.81591 16 8.99999C16 9.18407 16.1493 9.33332 16.3333 9.33332H17.6667C17.8508 9.33332 18 9.18407 18 8.99999C18 8.81591 17.8508 8.66666 17.6667 8.66666Z" fill="#494A4C"/>
<path d="M15.3514 5.66665C15.4099 5.66665 15.4674 5.65124 15.5181 5.62199L16.6728 4.95532C16.8316 4.86224 16.8849 4.65799 16.7918 4.4992C16.6995 4.34186 16.498 4.28786 16.3394 4.37799L15.1848 5.04465C15.0254 5.1367 14.9707 5.34057 15.0628 5.49999C15.1224 5.60311 15.2324 5.66665 15.3514 5.66665Z" fill="#494A4C"/>
<path d="M12.5002 2.93768C12.6596 3.02972 12.8635 2.97509 12.9555 2.81568L13.6222 1.66101C13.7132 1.50097 13.6572 1.29747 13.4971 1.20651C13.3386 1.11639 13.1371 1.17039 13.0449 1.32768L12.3782 2.48234C12.2862 2.64176 12.3408 2.84564 12.5002 2.93768Z" fill="#494A4C"/>
</svg>
