<svg width="18" height="20" viewBox="0 0 18 20" fill="none" xmlns="http://www.w3.org/2000/svg">
<path d="M17.0129 4.18091L12.9269 0.167847C12.8174 0.0602722 12.67 0 12.5163 0H2.18628C0.980835 0 0 0.980682 0 2.18628V17.8137C0 19.0192 0.980682 20 2.18628 20H15.002C16.2074 20 17.1883 19.0193 17.1883 17.8137V4.599C17.1883 4.44168 17.1251 4.29108 17.0129 4.18091ZM13.1023 1.98273L15.1695 4.01306H13.2886C13.1859 4.01306 13.1023 3.92944 13.1023 3.82675V1.98273ZM15.002 18.8281H2.18628C1.62704 18.8281 1.17188 18.3731 1.17188 17.8137V2.18628C1.17188 1.62689 1.62689 1.17188 2.18628 1.17188H11.9305V3.82675C11.9305 4.57565 12.5398 5.18494 13.2887 5.18494H16.0164V17.8137C16.0164 18.3731 15.5614 18.8281 15.002 18.8281Z" fill="#494A4C"/>
<path d="M12.6617 9.29688H4.40186C4.07822 9.29688 3.81592 9.55917 3.81592 9.88281C3.81592 10.2065 4.07822 10.4688 4.40186 10.4688H12.6617C12.9854 10.4688 13.2477 10.2065 13.2477 9.88281C13.2477 9.55917 12.9854 9.29688 12.6617 9.29688Z" fill="#494A4C"/>
<path d="M4.40186 12.8125H11.1368C11.4604 12.8125 11.7227 12.5502 11.7227 12.2266C11.7227 11.9029 11.4604 11.6406 11.1368 11.6406H4.40186C4.07822 11.6406 3.81592 11.9029 3.81592 12.2266C3.81592 12.5502 4.07822 12.8125 4.40186 12.8125Z" fill="#494A4C"/>
<path d="M11.9493 13.9844H4.40186C4.07822 13.9844 3.81592 14.2467 3.81592 14.5703C3.81592 14.894 4.07822 15.1562 4.40186 15.1562H11.9493C12.2728 15.1562 12.5352 14.894 12.5352 14.5703C12.5352 14.2467 12.2728 13.9844 11.9493 13.9844Z" fill="#494A4C"/>
</svg>
