<svg width="20" height="20" viewBox="0 0 20 20" fill="none" xmlns="http://www.w3.org/2000/svg">
<g clip-path="url(#clip0_486_105)">
<path d="M12.2433 7.91533L9.25194 10.9067C9.2207 10.9378 9.17839 10.9553 9.13428 10.9553C9.09016 10.9553 9.04785 10.9378 9.01661 10.9067L7.75594 9.64666C7.71017 9.59754 7.65497 9.55814 7.59363 9.53081C7.5323 9.50348 7.46609 9.48878 7.39896 9.4876C7.33182 9.48642 7.26514 9.49877 7.20288 9.52391C7.14062 9.54906 7.08406 9.58649 7.03658 9.63397C6.9891 9.68145 6.95167 9.738 6.92653 9.80026C6.90138 9.86252 6.88903 9.92921 6.89021 9.99634C6.8914 10.0635 6.90609 10.1297 6.93342 10.191C6.96075 10.2524 7.00015 10.3076 7.04928 10.3533L8.30994 11.614C8.52888 11.8323 8.82544 11.9549 9.13461 11.9549C9.44378 11.9549 9.74033 11.8323 9.95928 11.614L12.9506 8.62266C12.9983 8.57652 13.0364 8.52133 13.0626 8.46031C13.0888 8.3993 13.1025 8.33368 13.1031 8.26729C13.1036 8.2009 13.0909 8.13507 13.0658 8.07363C13.0406 8.0122 13.0034 7.95639 12.9565 7.90946C12.9095 7.86254 12.8537 7.82544 12.7922 7.80033C12.7307 7.77522 12.6649 7.7626 12.5985 7.7632C12.5321 7.76381 12.4665 7.77764 12.4055 7.80387C12.3445 7.8301 12.2894 7.86755 12.2433 7.91533Z" fill="#494A4C"/>
<path d="M18.2873 15.314L18.7846 14.4513C19.0036 14.0472 19.092 13.5851 19.0375 13.1287C18.9831 12.6723 18.7885 12.244 18.4806 11.9027C18.0401 11.3646 17.7993 10.6907 17.7993 9.99534C17.7993 9.29996 18.0401 8.62603 18.4806 8.08801C18.7878 7.74628 18.9817 7.31783 19.0357 6.86149C19.0896 6.40514 19.001 5.94328 18.7819 5.53934L18.2799 4.67734C18.0618 4.27973 17.7246 3.96051 17.3156 3.76462C16.9066 3.56873 16.4464 3.50603 15.9999 3.58534C15.28 3.73446 14.5304 3.61404 13.8935 3.24695C13.2565 2.87986 12.7765 2.29165 12.5446 1.59401C12.3892 1.16796 12.1044 0.801239 11.73 0.545264C11.3557 0.289289 10.9106 0.156903 10.4573 0.166673H9.54259C9.08914 0.156962 8.64401 0.289362 8.26957 0.54532C7.89514 0.801278 7.61017 1.16797 7.45459 1.59401C7.2227 2.29151 6.7428 2.87962 6.10598 3.24669C5.46915 3.61377 4.71972 3.73428 3.99992 3.58534C3.55335 3.50639 3.09326 3.56926 2.68423 3.7651C2.2752 3.96095 1.93776 4.27995 1.71926 4.67734L1.22126 5.53934C1.00195 5.94329 0.913116 6.40525 0.966953 6.86173C1.02079 7.31821 1.21466 7.74682 1.52192 8.08867C1.96229 8.62665 2.2029 9.30045 2.2029 9.99567C2.2029 10.6909 1.96229 11.3647 1.52192 11.9027C1.21408 12.244 1.0195 12.6723 0.964947 13.1286C0.910392 13.585 0.998534 14.0471 1.21726 14.4513L1.71459 15.314C1.93283 15.7115 2.2699 16.0308 2.67861 16.2272C3.08732 16.4236 3.54722 16.4873 3.99392 16.4093C4.71384 16.2613 5.46304 16.3828 6.09936 16.7506C6.73568 17.1184 7.21485 17.707 7.44592 18.4047C7.60066 18.831 7.88511 19.1981 8.25927 19.4543C8.63344 19.7106 9.07852 19.8431 9.53192 19.8333H10.4733C10.9266 19.843 11.3717 19.7104 11.7458 19.4542C12.12 19.1979 12.4044 18.8309 12.5593 18.4047C12.7903 17.707 13.2695 17.1184 13.9058 16.7506C14.5421 16.3828 15.2913 16.2613 16.0113 16.4093C16.4575 16.4867 16.9167 16.4228 17.3248 16.2264C17.7329 16.03 18.0694 15.711 18.2873 15.314ZM16.2206 15.4313C15.2585 15.2337 14.2573 15.3961 13.4069 15.8876C12.5566 16.3791 11.9162 17.1657 11.6073 18.098C11.518 18.3229 11.3609 18.5143 11.1578 18.6457C10.9546 18.7772 10.7156 18.842 10.4739 18.8313H9.52926C9.28755 18.8421 9.04848 18.7773 8.84535 18.6459C8.64221 18.5144 8.48511 18.3229 8.39592 18.098C8.13108 17.2987 7.62171 16.6028 6.93981 16.1087C6.25792 15.6146 5.43799 15.3474 4.59592 15.3447C4.32276 15.3446 4.05036 15.3735 3.78326 15.4307C3.54343 15.4661 3.29854 15.4257 3.0828 15.3151C2.86706 15.2046 2.69124 15.0294 2.57992 14.814L2.08259 13.9513C1.96739 13.7242 1.92523 13.467 1.96186 13.2149C1.9985 12.9629 2.11215 12.7283 2.28726 12.5433C2.87632 11.825 3.19859 10.925 3.19932 9.99605C3.20004 9.06711 2.87919 8.16655 2.29126 7.44734C2.11621 7.26248 2.00259 7.02803 1.96595 6.7761C1.92931 6.52416 1.97145 6.26706 2.08659 6.04001L2.58526 5.17801C2.69788 4.9637 2.87407 4.78951 3.08964 4.67934C3.30521 4.56917 3.5496 4.52841 3.78926 4.56267C4.75133 4.76242 5.75325 4.60167 6.60456 4.111C7.45586 3.62033 8.09718 2.83394 8.40659 1.90134C8.49619 1.67672 8.65339 1.48549 8.85643 1.35411C9.05946 1.22274 9.29831 1.1577 9.53992 1.16801H10.4546C10.6962 1.1578 10.935 1.22288 11.138 1.35424C11.341 1.48561 11.4982 1.67678 11.5879 1.90134C11.897 2.83419 12.5382 3.62085 13.3896 4.11159C14.241 4.60232 15.2432 4.76287 16.2053 4.56267C16.445 4.52791 16.6895 4.56845 16.9052 4.67867C17.1209 4.7889 17.297 4.96338 17.4093 5.17801L17.9133 6.04001C18.0292 6.26668 18.0721 6.52364 18.0363 6.77569C18.0005 7.02775 17.8877 7.26257 17.7133 7.44801C17.125 8.16686 16.8036 9.06713 16.8036 9.99601C16.8036 10.9249 17.125 11.8251 17.7133 12.544C17.8885 12.7289 18.0022 12.9634 18.039 13.2155C18.0758 13.4675 18.0337 13.7248 17.9186 13.952L17.4206 14.8147C17.3092 15.0298 17.1334 15.2048 16.9179 15.3153C16.7023 15.4258 16.4576 15.4664 16.2179 15.4313H16.2206Z" fill="#494A4C"/>
<path d="M10.0001 4.246C8.86206 4.246 7.74959 4.58347 6.80335 5.21573C5.8571 5.84798 5.1196 6.74664 4.68409 7.79804C4.24859 8.84945 4.13464 10.0064 4.35666 11.1226C4.57868 12.2387 5.12669 13.264 5.9314 14.0687C6.73612 14.8734 7.76138 15.4214 8.87755 15.6434C9.99371 15.8655 11.1507 15.7515 12.2021 15.316C13.2535 14.8805 14.1521 14.143 14.7844 13.1968C15.4166 12.2505 15.7541 11.138 15.7541 10C15.7523 8.47449 15.1455 7.01196 14.0668 5.93326C12.9881 4.85456 11.5256 4.24777 10.0001 4.246ZM10.0001 14.754C9.05984 14.754 8.14071 14.4752 7.35892 13.9528C6.57712 13.4304 5.96779 12.688 5.60797 11.8193C5.24815 10.9506 5.15401 9.99473 5.33744 9.07254C5.52088 8.15036 5.97365 7.30328 6.63851 6.63842C7.30337 5.97356 8.15045 5.52078 9.07264 5.33735C9.99482 5.15392 10.9507 5.24806 11.8194 5.60788C12.6881 5.9677 13.4305 6.57703 13.9529 7.35882C14.4753 8.14061 14.7541 9.05975 14.7541 10C14.7527 11.2604 14.2514 12.4688 13.3601 13.36C12.4689 14.2513 11.2605 14.7526 10.0001 14.754Z" fill="#494A4C"/>
</g>
<defs>
<clipPath id="clip0_486_105">
<rect width="20" height="20" fill="white"/>
</clipPath>
</defs>
</svg>
