<svg width="20" height="20" viewBox="0 0 20 20" fill="none" xmlns="http://www.w3.org/2000/svg">
<path d="M7.30063 12.0306H0.625C0.279875 12.0306 0 12.3104 0 12.6556V19.375C0 19.7203 0.279875 20 0.625 20H7.30063C7.64575 20 7.92562 19.7203 7.92562 19.375V12.6556C7.92562 12.3104 7.64575 12.0306 7.30063 12.0306ZM6.67563 18.75H1.25V13.2806H6.67563V18.75Z" fill="#494A4C"/>
<path d="M17.8705 12.0306H11.1948C10.8497 12.0306 10.5698 12.3104 10.5698 12.6556V19.375C10.5698 19.7203 10.8497 20 11.1948 20H17.8705C18.2156 20 18.4955 19.7203 18.4955 19.375V12.6556C18.4955 12.3104 18.2156 12.0306 17.8705 12.0306ZM17.2455 18.75H11.8198V13.2806H17.2455V18.75Z" fill="#494A4C"/>
<path d="M7.30063 1.39163H0.625C0.279875 1.39163 0 1.67138 0 2.01663V8.73601C0 9.08126 0.279875 9.36101 0.625 9.36101H7.30063C7.64575 9.36101 7.92562 9.08126 7.92562 8.73601V2.01663C7.92562 1.67138 7.64575 1.39163 7.30063 1.39163ZM6.67563 8.11101H1.25V2.64163H6.67563V8.11101Z" fill="#494A4C"/>
<path d="M19.6962 4.93575L14.9758 0.1845C14.8586 0.0665 14.6989 0 14.5324 0C14.3659 0 14.2064 0.066375 14.0891 0.1845L9.3687 4.93587C9.12645 5.17963 9.12645 5.57325 9.3687 5.817L14.0891 10.5682C14.3221 10.8119 14.7428 10.8124 14.9758 10.5682L19.6962 5.817C19.9384 5.57325 19.9384 5.1795 19.6962 4.93575ZM14.5326 9.24088L10.6932 5.37638L14.5326 1.51187L18.3719 5.37638L14.5326 9.24088Z" fill="#494A4C"/>
</svg>
